<svg width="140" height="36" viewBox="0 0 140 36" fill="none" xmlns="http://www.w3.org/2000/svg">
<path d="M0.5 35H18.9V29.32H6.98V2H0.5V35ZM31.8319 35.64C33.2319 35.64 34.5385 35.3533 35.7519 34.78C36.9785 34.1933 38.0585 33.3667 38.9919 32.3V35H45.1319V14.52H38.9919V17.02C38.1785 16.0333 37.1452 15.2667 35.8919 14.72C34.6385 14.16 33.2852 13.88 31.8319 13.88C29.8585 13.88 28.1052 14.36 26.5719 15.32C25.0519 16.2667 23.8585 17.56 22.9919 19.2C22.1252 20.8267 21.6919 22.6667 21.6919 24.72C21.6919 26.8267 22.1452 28.7067 23.0519 30.36C23.9585 32 25.1719 33.2933 26.6919 34.24C28.2252 35.1733 29.9385 35.64 31.8319 35.64ZM33.6519 30.42C32.0652 30.42 30.7519 29.8867 29.7119 28.82C28.6719 27.7533 28.1519 26.4 28.1519 24.76C28.1519 23.12 28.6719 21.7667 29.7119 20.7C30.7652 19.6333 32.0785 19.1 33.6519 19.1C35.2385 19.1 36.5452 19.6333 37.5719 20.7C38.6119 21.7533 39.1319 23.1067 39.1319 24.76C39.1319 26.4133 38.6185 27.7733 37.5919 28.84C36.5652 29.8933 35.2519 30.42 33.6519 30.42ZM65.6944 35.64C67.5477 35.64 69.2344 35.18 70.7544 34.26C72.2877 33.3267 73.5077 32.04 74.4144 30.4C75.321 28.76 75.7744 26.88 75.7744 24.76C75.7744 22.68 75.3277 20.82 74.4344 19.18C73.5544 17.54 72.341 16.2467 70.7944 15.3C69.261 14.3533 67.5077 13.88 65.5344 13.88C64.1077 13.88 62.781 14.16 61.5544 14.72C60.3277 15.2667 59.3077 16.0333 58.4944 17.02V0.599999H52.3544V35H58.4944V32.3C59.401 33.3533 60.4744 34.1733 61.7144 34.76C62.9544 35.3467 64.281 35.64 65.6944 35.64ZM63.8544 30.42C62.241 30.42 60.9144 29.8933 59.8744 28.84C58.8477 27.7733 58.3344 26.4267 58.3344 24.8C58.3344 23.1467 58.8544 21.7867 59.8944 20.72C60.9477 19.64 62.2677 19.1 63.8544 19.1C65.4277 19.1 66.7277 19.64 67.7544 20.72C68.7944 21.7867 69.3144 23.1467 69.3144 24.8C69.3144 26.4267 68.801 27.7733 67.7744 28.84C66.761 29.8933 65.4544 30.42 63.8544 30.42ZM89.9569 35.64C91.3569 35.64 92.6635 35.3533 93.8769 34.78C95.1035 34.1933 96.1835 33.3667 97.1169 32.3V35H103.257V14.52H97.1169V17.02C96.3035 16.0333 95.2702 15.2667 94.0169 14.72C92.7635 14.16 91.4102 13.88 89.9569 13.88C87.9835 13.88 86.2302 14.36 84.6969 15.32C83.1769 16.2667 81.9835 17.56 81.1169 19.2C80.2502 20.8267 79.8169 22.6667 79.8169 24.72C79.8169 26.8267 80.2702 28.7067 81.1769 30.36C82.0835 32 83.2969 33.2933 84.8169 34.24C86.3502 35.1733 88.0635 35.64 89.9569 35.64ZM91.7769 30.42C90.1902 30.42 88.8769 29.8867 87.8369 28.82C86.7969 27.7533 86.2769 26.4 86.2769 24.76C86.2769 23.12 86.7969 21.7667 87.8369 20.7C88.8902 19.6333 90.2035 19.1 91.7769 19.1C93.3635 19.1 94.6702 19.6333 95.6969 20.7C96.7369 21.7533 97.2569 23.1067 97.2569 24.76C97.2569 26.4133 96.7435 27.7733 95.7169 28.84C94.6902 29.8933 93.3769 30.42 91.7769 30.42ZM117.266 35.64C118.093 35.64 118.933 35.5333 119.786 35.32C120.653 35.1067 121.433 34.8133 122.126 34.44L120.586 29.52C120.013 29.9467 119.399 30.16 118.746 30.16C117.546 30.16 116.946 29.3733 116.946 27.8V19.18H121.446V14.52H116.946V6.84H110.806V14.52H108.066V19.18H110.806V28.24C110.806 30.5733 111.373 32.3933 112.506 33.7C113.653 34.9933 115.239 35.64 117.266 35.64ZM134.258 35.64C135.085 35.64 135.925 35.5333 136.778 35.32C137.645 35.1067 138.425 34.8133 139.118 34.44L137.578 29.52C137.005 29.9467 136.391 30.16 135.738 30.16C134.538 30.16 133.938 29.3733 133.938 27.8V19.18H138.438V14.52H133.938V6.84H127.798V14.52H125.058V19.18H127.798V28.24C127.798 30.5733 128.365 32.3933 129.498 33.7C130.645 34.9933 132.231 35.64 134.258 35.64Z" fill="white"/>
</svg>
