<svg width="102" height="31" viewBox="0 0 102 31" fill="none" xmlns="http://www.w3.org/2000/svg">
<path d="M100.246 23.7731C99.3555 23.7731 98.6626 23.0318 98.6626 22.132C98.6626 21.2323 99.3645 20.4817 100.255 20.4817C101.146 20.4817 101.839 21.2229 101.839 22.1227C101.839 23.0225 101.137 23.7731 100.246 23.7731ZM100.255 20.6449C99.441 20.6449 98.8291 21.3115 98.8291 22.132C98.8291 22.9525 99.441 23.6099 100.246 23.6099C101.056 23.6099 101.673 22.9432 101.673 22.1227C101.673 21.3069 101.061 20.6449 100.255 20.6449ZM100.606 22.2905L101.056 22.9432H100.678L100.273 22.3465H99.9269V22.9432H99.6119V21.2183H100.354C100.741 21.2183 100.993 21.4234 100.993 21.7684C100.993 22.0528 100.836 22.2253 100.606 22.2905ZM100.336 21.5166H99.9224V22.0621H100.336C100.543 22.0621 100.665 21.9595 100.665 21.7917C100.665 21.6099 100.543 21.5166 100.336 21.5166Z" fill="black"/>
<path d="M80.0314 17.9408C79.0956 19.1249 77.7863 19.717 76.1082 19.717C74.7494 19.717 73.6561 19.3021 72.8193 18.4629C71.9824 17.6284 71.5685 16.5515 71.5685 15.2368C71.5685 13.8802 72.0004 12.7706 72.8688 11.9035C73.7371 11.0364 74.8709 10.6028 76.2746 10.6028C77.044 10.6028 77.7189 10.724 78.2903 10.9711C78.8662 11.2228 79.442 11.6611 80.0314 12.2998V7.79629C78.9066 7.2555 77.6469 6.98511 76.2566 6.98511C74.6504 6.98511 73.2062 7.34408 71.9059 8.06669C70.6057 8.78929 69.5978 9.7823 68.8735 11.0457C68.1536 12.3091 67.7847 13.689 67.7847 15.1902C67.7847 17.358 68.527 19.2461 70.0208 20.8592C71.51 22.4722 73.5706 23.2834 76.1981 23.2834C77.6334 23.2834 78.9112 23.0083 80.027 22.4955" fill="black"/>
<path d="M47.696 9.33006C46.2202 7.7683 44.3036 6.98975 41.946 6.98975C39.7324 6.98975 37.8878 7.7683 36.421 9.33006C34.9453 10.8918 34.2119 12.8545 34.2119 15.2228C34.2119 17.5305 34.9453 19.4512 36.4255 20.9804C37.9013 22.5141 39.8134 23.2834 42.1575 23.2834C43.6692 23.2834 44.974 23.0037 46.0763 22.4535C47.1741 21.8988 48.1189 21.041 48.9018 19.8848L47.9569 19.4233C46.0493 18.7006 44.4611 19.3067 44.4476 19.316C43.7457 19.6843 42.9718 19.8708 42.1305 19.8708C40.9562 19.8708 39.9934 19.5445 39.2375 18.8965C38.4816 18.2484 38.0137 17.372 37.8383 16.2718H49.8916L49.9051 15.5352C49.9096 12.9524 49.1762 10.8918 47.696 9.33006ZM38.0092 13.1995C38.4322 12.2345 38.8866 11.5678 39.3815 11.1902C40.1733 10.5795 41.0867 10.2764 42.135 10.2764C43.0978 10.2764 43.9437 10.5468 44.677 11.0876C45.4059 11.6284 45.8918 12.3324 46.1393 13.1995H38.0092Z" fill="black"/>
<path d="M11.7249 21.2414V27.8288C11.9273 28.6353 12.6382 30.2763 15.0588 30.5747H15.4772V7.41865H11.7249V9.09696C11.0545 8.393 10.3301 7.8662 9.54277 7.51189C8.75542 7.16224 7.91406 6.98975 7.01423 6.98975C5.06158 6.98975 3.41488 7.74965 2.04713 9.28344C0.683877 10.8079 0 12.7706 0 15.1622C0 17.4699 0.706371 19.3999 2.11462 20.9524C3.52286 22.5048 5.19656 23.288 7.12671 23.288C7.98605 23.288 8.78691 23.1249 9.52028 22.8032C10.2536 22.4815 10.9915 21.964 11.7249 21.2414ZM4.90861 18.4209C4.12575 17.5585 3.73882 16.4536 3.73882 15.1156C3.73882 13.7869 4.12125 12.696 4.89061 11.8429C5.65547 10.9991 6.6183 10.5701 7.77909 10.5701C8.97137 10.5701 9.9477 10.9851 10.7261 11.8242C11.5044 12.6587 11.8913 13.7543 11.8913 15.0969C11.8913 16.4769 11.5044 17.5864 10.7261 18.4349C9.9477 19.2834 8.97588 19.7123 7.79259 19.7123C6.6543 19.717 5.69147 19.2834 4.90861 18.4209Z" fill="black"/>
<path d="M28.3944 10.5096V14.9757C28.3944 16.4349 28.3179 17.3953 28.1604 17.8335C27.949 18.4349 27.625 18.8871 27.1886 19.1948C26.7522 19.5025 25.9019 19.6564 25.2765 19.6564C24.6556 19.6564 23.8052 19.5025 23.3778 19.1855C22.9504 18.8732 22.6399 18.4349 22.4465 17.8662C22.253 17.3021 22.1585 16.2904 22.1585 14.8405V10.4862C21.7851 7.72169 19.0496 7.40934 18.3657 7.37671V13.8289C18.3657 16.3044 18.5097 18.0153 18.8021 18.9524C19.2161 20.3137 19.9269 21.372 20.9438 22.1319C21.9516 22.8918 23.6028 23.2741 25.2405 23.2741C26.7522 23.2741 28.3224 22.9477 29.3032 22.295C30.2841 21.6424 31.0219 20.7146 31.5303 19.4979C31.9443 18.5002 32.1467 16.6494 32.1467 13.9408V7.414C31.3999 7.46062 28.7588 7.80561 28.3944 10.5096Z" fill="black"/>
<path d="M61.6164 12.4117C61.7739 13.0177 61.8594 14.2485 61.8594 16.0993V21.2694C61.9314 21.703 62.4263 23.4093 65.5667 23.4093V12.6401C65.5667 10.8545 65.1303 9.50724 64.262 8.59349C63.2271 7.51657 61.9719 6.98511 60.4871 6.98511C59.7628 6.98511 59.0564 7.12963 58.368 7.41867C57.6751 7.71238 56.9058 8.22519 56.0554 8.97111V7.38138H52.3076V23.2787C52.3526 23.2741 52.4021 23.2694 52.4516 23.2694C54.9981 23.2694 55.8035 22.1459 56.0554 21.4885V16.6634C56.0554 15.0503 56.1139 14.0014 56.2219 13.5212C56.4289 12.5888 56.8113 11.8615 57.3512 11.3347C57.8911 10.8079 58.548 10.5469 59.3084 10.5469C59.8932 10.5469 60.3837 10.7054 60.7796 11.0224C61.1755 11.3394 61.4545 11.8009 61.6164 12.4117Z" fill="black"/>
<path d="M95.4276 8.57957C94.4108 7.51664 93.1601 6.98518 91.6753 6.98518C90.915 6.98518 90.1681 7.14834 89.4212 7.47468C88.6834 7.80102 87.941 8.29053 87.2076 8.94787V0.276584C84.0492 0.113415 83.5588 3.28356 83.4868 4.12272V23.4047C87.0817 23.4047 87.2076 21.1623 87.2076 21.1623V16.6495C87.2076 14.9851 87.2661 13.9222 87.3786 13.4607C87.5901 12.5609 87.9635 11.8476 88.5124 11.3255C89.0568 10.8033 89.7137 10.5423 90.4695 10.5423C91.0544 10.5423 91.5448 10.6961 91.9453 11.0131C92.3412 11.3255 92.6247 11.7963 92.7911 12.4397C92.9576 13.0737 93.0431 14.2905 93.0431 16.0807V21.1716L93.0476 21.1623C93.0476 21.1623 93.178 23.386 96.7369 23.4047V12.6355C96.7324 10.8546 96.296 9.50264 95.4276 8.57957Z" fill="black"/>
</svg>
